<svg xmlns="http://www.w3.org/2000/svg" width="200" height="158.432" viewBox="0 0 200 158.432">
  <g id="Group_2173" data-name="Group 2173" transform="translate(0 0)">
    <path id="Union_40" data-name="Union 40" d="M61.474,158.432a6.1,6.1,0,1,1,0-12.2H78.763c4.964,0,6.1-3.156,6.1-6.1a6.1,6.1,0,0,0-4.947-5.99c-17.272-.048-32.281-.108-33.683-.108h-18.2a6.1,6.1,0,1,1,0-12.2H58.357A6.1,6.1,0,0,0,59,109.678H42.3a5.982,5.982,0,0,1-.641-.035H37.377a6.1,6.1,0,0,1,0-12.2H60.216a6.1,6.1,0,0,0-.636-12.163H51.617c-.064,0-.123-.012-.186-.012H15.418a6.1,6.1,0,1,1,0-12.191h26.6a6.1,6.1,0,0,0,0-12.2H6.1a6.1,6.1,0,0,1,0-12.2H54.148A6.1,6.1,0,0,0,55.3,36.592H47.414a6.262,6.262,0,0,1-1.149-.11H42.487a6.1,6.1,0,1,1,0-12.2c15.859,0,33.465.021,52.411.047A6.1,6.1,0,0,0,94.035,12.2H76.755a6.1,6.1,0,0,1,0-12.2H127.7a6.1,6.1,0,1,1,0,12.2h-7.968a6.1,6.1,0,0,0-.627,12.164c16.585.019,33.978.035,51.953.035a6.1,6.1,0,0,1,0,12.2H123.009a6.1,6.1,0,0,0-1.149,12.088h35.847a6.159,6.159,0,0,1,1.149.111h3.772a6.1,6.1,0,1,1,0,12.2h-24.1a6.1,6.1,0,0,0,1.143,12.086h8.713c.063,0,.122.012.186.012H193.9a6.1,6.1,0,0,1,0,12.2H157.98a6.1,6.1,0,1,0,0,12.2h26.6a6.1,6.1,0,1,1,0,12.2H145.852a6.1,6.1,0,0,0-.641,12.163h7.376a6,6,0,0,1,.641.035h4.286a6.1,6.1,0,0,1,0,12.2H134.669c-.742.076-6.088.113-13.819.126a6.1,6.1,0,0,0,1.391,12.037h18.144a6.1,6.1,0,0,1,0,12.2Z" transform="translate(199.999 158.432) rotate(180)" fill="#222129"/>
  </g>
</svg>
